<svg xmlns="http://www.w3.org/2000/svg" version="1.1" xmlns:xlink="http://www.w3.org/1999/xlink" xmlns:svgjs="http://svgjs.dev/svgjs" width="2000" height="2250" viewBox="0 0 2000 2250"><g transform="matrix(1,0,0,1,0,0)"><svg viewBox="0 0 320 360" data-background-color="#000000" preserveAspectRatio="xMidYMid meet" height="2250" width="2000" xmlns="http://www.w3.org/2000/svg" xmlns:xlink="http://www.w3.org/1999/xlink"><g id="tight-bounds" transform="matrix(1,0,0,1,0,0)"><svg viewBox="0 0 320 360" height="360" width="320"><g><svg></svg></g><g><svg viewBox="0 0 320 360" height="360" width="320"><g><path d="M297.491 100.645c-12.426-21.51-112.674-79.355-137.491-79.355-24.817 0-125.028 57.845-137.491 79.355-11.591 20.02-11.591 138.726 0 158.746 12.463 21.474 112.674 79.319 137.491 79.319 24.817 0 125.064-57.845 137.491-79.355 11.591-20.02 11.591-138.69 0-158.71zM309.481 93.705c-14.461-24.998-119.469-86.295-149.481-86.295-30.012 0-135.02 61.297-149.481 86.295-14.025 24.199-14.025 148.391 0 172.59 14.461 24.998 119.469 86.295 149.481 86.295 30.012 0 135.02-61.297 149.481-86.259 14.025-24.235 14.025-148.427 0-172.626zM300.906 261.353c-12.753 22.055-115.472 81.317-140.906 81.318-25.434 0-128.153-59.298-140.906-81.354-11.881-20.529-11.881-142.178 0-162.707 12.753-22.019 115.472-81.281 140.906-81.281 25.434 0 128.153 59.298 140.906 81.318 11.881 20.529 11.881 142.178 0 162.706z" fill="#000000" fill-rule="nonzero" stroke="none" stroke-width="1" stroke-linecap="butt" stroke-linejoin="miter" stroke-miterlimit="10" stroke-dasharray="" stroke-dashoffset="0" font-family="none" font-weight="none" font-size="none" text-anchor="none" style="mix-blend-mode: normal" data-fill-palette-color="tertiary"></path></g><g transform="matrix(1,0,0,1,48,115.05473584364822)"><svg viewBox="0 0 224 129.89052831270357" height="129.89052831270357" width="224"><g><svg viewBox="0 0 224 129.89052831270357" height="129.89052831270357" width="224"><g><svg viewBox="0 0 224 129.89052831270357" height="129.89052831270357" width="224"><g id="textblocktransform"><svg viewBox="0 0 224 129.89052831270357" height="129.89052831270357" width="224" id="textblock"><g><svg viewBox="0 0 224 84.0130293159609" height="84.0130293159609" width="224"><g transform="matrix(1,0,0,1,0,0)"><svg width="224" viewBox="1 -39.6 107.45 40.300000000000004" height="84.0130293159609" data-palette-color="#cdc8c6"><path d="M31.95 0L1 0 1-8.2 3.5-8.2 3.5-30.7 1-30.7 1-38.9 22.1-38.9 22.1-30.7 17.5-30.7 17.5-8.2 22-8.2 22-12.8 31.95-12.8 31.95 0ZM53.05 0.7Q43.6 0.7 38.47-4.1 33.35-8.9 33.35-19.45L33.35-19.45Q33.35-39.6 52.95-39.6L52.95-39.6Q57.7-39.6 61.77-38.45 65.85-37.3 67.85-35.9L67.85-35.9 67.85-23.4 55.85-23.4 55.85-27Q55.85-28.9 55-29.8 54.15-30.7 52.45-30.7L52.45-30.7Q50.75-30.7 49.9-29.8 49.05-28.9 49.05-27L49.05-27 49.05-11.9Q49.05-10 49.9-9.1 50.75-8.2 52.45-8.2L52.45-8.2Q54.15-8.2 55-9.1 55.85-10 55.85-11.9L55.85-11.9 55.85-15.95 67.85-15.95 67.85-3Q65.8-1.6 61.77-0.45 57.75 0.7 53.05 0.7L53.05 0.7ZM98-38.9L106.45-8.2 108.45-8.2 108.45 0 88.84 0 88.84-8.2 91.84-8.2 91.05-12.2 84.25-12.2 83.45-8.2 86.45-8.2 86.45 0 69.34 0 69.34-8.2 71.34-8.2 79.8-38.9 98-38.9ZM87.4-27.45L85.34-17.5 89.95-17.5 87.9-27.45 87.4-27.45Z" opacity="1" transform="matrix(1,0,0,1,0,0)" fill="#ffffff" class="wordmark-text-0" data-fill-palette-color="quaternary" id="text-0"></path></svg></g></svg></g><g transform="matrix(1,0,0,1,0,103.84648922475569)"><svg viewBox="0 0 224 26.044039087947883" height="26.044039087947883" width="224"><g transform="matrix(1,0,0,1,0,0)"><svg width="224" viewBox="0.4 -39.65 434.34000000000003 50.5" height="26.044039087947883" data-palette-color="#cdc8c6"><path d="M0.4-34.55L21.95-34.55 21.25-29.55 14.15-29.55 14.15 0 7.8 0 7.8-29.55 0.4-29.55 0.4-34.55ZM49.01-26.45L49.01 0 43.66 0 43.36-3.35Q42.11-1.3 40.56-0.28 39.01 0.75 36.96 0.75L36.96 0.75Q34.06 0.75 32.38-1.3 30.71-3.35 30.71-6.65L30.71-6.65 30.71-26.45 36.86-26.45 36.86-7Q36.86-3.9 38.96-3.9L38.96-3.9Q40.16-3.9 41.11-4.83 42.06-5.75 42.86-7.45L42.86-7.45 42.86-26.45 49.01-26.45ZM73.07-27.15Q75.92-27.15 77.57-25.1 79.22-23.05 79.22-19.6L79.22-19.6 79.22 0 73.07 0 73.07-18.9Q73.07-20.8 72.54-21.63 72.02-22.45 71.02-22.45L71.02-22.45Q68.92-22.45 66.87-18.5L66.87-18.5 66.87 0 60.72 0 60.72-26.45 66.07-26.45 66.52-23Q67.87-25.1 69.39-26.13 70.92-27.15 73.07-27.15L73.07-27.15ZM90.78-26.45L96.93-26.45 96.93 0 90.78 0 90.78-26.45ZM93.83-39.65Q95.48-39.65 96.5-38.6 97.53-37.55 97.53-35.9L97.53-35.9Q97.53-34.3 96.5-33.25 95.48-32.2 93.83-32.2L93.83-32.2Q92.18-32.2 91.15-33.25 90.13-34.3 90.13-35.9L90.13-35.9Q90.13-37.55 91.15-38.6 92.18-39.65 93.83-39.65L93.83-39.65ZM120.99-27.15Q123.84-27.15 125.49-25.1 127.14-23.05 127.14-19.6L127.14-19.6 127.14 0 120.99 0 120.99-18.9Q120.99-20.8 120.46-21.63 119.94-22.45 118.94-22.45L118.94-22.45Q116.84-22.45 114.79-18.5L114.79-18.5 114.79 0 108.64 0 108.64-26.45 113.99-26.45 114.44-23Q115.79-25.1 117.31-26.13 118.84-27.15 120.99-27.15L120.99-27.15ZM156.65-29.85L158.2-25.1Q157.15-24.6 155.67-24.4 154.2-24.2 152-24.2L152-24.2Q154.1-23.2 155.12-21.53 156.15-19.85 156.15-17.4L156.15-17.4Q156.15-13.4 153.7-10.95 151.25-8.5 147.05-8.5L147.05-8.5Q145.8-8.5 144.5-8.9L144.5-8.9Q143.6-8.15 143.6-6.85L143.6-6.85Q143.6-5.85 144.15-5.35 144.7-4.85 146.2-4.85L146.2-4.85 149-4.85Q153-4.85 155.35-2.78 157.7-0.7 157.7 2.5L157.7 2.5Q157.7 6.3 154.77 8.58 151.85 10.85 146.45 10.85L146.45 10.85Q140.75 10.85 138.47 8.75 136.2 6.65 136.2 2.6L136.2 2.6 141.65 2.6Q141.65 4.75 142.65 5.65 143.65 6.55 146.5 6.55L146.5 6.55Q149.25 6.55 150.4 5.6 151.55 4.65 151.55 2.9L151.55 2.9Q151.55 1.2 150.6 0.4 149.65-0.4 147.65-0.4L147.65-0.4 145.75-0.4Q141.95-0.4 140.2-1.75 138.45-3.1 138.45-5.45L138.45-5.45Q138.45-6.8 139.17-8.03 139.9-9.25 141.15-10.2L141.15-10.2Q139.1-11.5 138.15-13.3 137.2-15.1 137.2-17.7L137.2-17.7Q137.2-22.05 139.8-24.58 142.4-27.1 146.8-27.1L146.8-27.1Q150.05-27.1 152.17-27.8 154.3-28.5 156.65-29.85L156.65-29.85ZM146.8-23Q145.05-23 144.15-21.75 143.25-20.5 143.25-17.8L143.25-17.8Q143.25-15.25 144.15-13.88 145.05-12.5 146.75-12.5L146.75-12.5Q148.5-12.5 149.35-13.73 150.2-14.95 150.2-17.85L150.2-17.85Q150.2-20.55 149.37-21.78 148.55-23 146.8-23L146.8-23ZM201.67-13.85Q201.67-13.4 201.52-11.3L201.52-11.3 187.87-11.3Q188.07-7.2 189.29-5.58 190.52-3.95 192.77-3.95L192.77-3.95Q194.32-3.95 195.57-4.48 196.82-5 198.27-6.15L198.27-6.15 200.82-2.65Q197.32 0.75 192.42 0.75L192.42 0.75Q187.22 0.75 184.44-2.85 181.67-6.45 181.67-13L181.67-13Q181.67-19.55 184.32-23.35 186.97-27.15 191.82-27.15L191.82-27.15Q196.47-27.15 199.07-23.78 201.67-20.4 201.67-13.85L201.67-13.85ZM195.67-15.3L195.67-15.65Q195.67-19.4 194.77-21.13 193.87-22.85 191.87-22.85L191.87-22.85Q190.02-22.85 189.04-21.18 188.07-19.5 187.87-15.3L187.87-15.3 195.67-15.3ZM225.73-26.45L231.08-26.45 231.08 10.85 224.93 10.15 224.93-2.65Q222.83 0.75 219.23 0.75L219.23 0.75Q215.23 0.75 213.03-2.9 210.83-6.55 210.83-13.2L210.83-13.2Q210.83-17.45 211.95-20.6 213.08-23.75 215.08-25.45 217.08-27.15 219.73-27.15L219.73-27.15Q223.18-27.15 225.43-23.95L225.43-23.95 225.73-26.45ZM220.98-3.9Q222.18-3.9 223.13-4.7 224.08-5.5 224.93-7.1L224.93-7.1 224.93-19.8Q223.23-22.55 221.23-22.55L221.23-22.55Q219.43-22.55 218.33-20.33 217.23-18.1 217.23-13.25L217.23-13.25Q217.23-8.1 218.2-6 219.18-3.9 220.98-3.9L220.98-3.9ZM260.93-26.45L260.93 0 255.58 0 255.28-3.35Q254.03-1.3 252.48-0.28 250.93 0.75 248.88 0.75L248.88 0.75Q245.98 0.75 244.31-1.3 242.63-3.35 242.63-6.65L242.63-6.65 242.63-26.45 248.78-26.45 248.78-7Q248.78-3.9 250.88-3.9L250.88-3.9Q252.08-3.9 253.03-4.83 253.98-5.75 254.78-7.45L254.78-7.45 254.78-26.45 260.93-26.45ZM272.64-26.45L278.79-26.45 278.79 0 272.64 0 272.64-26.45ZM275.69-39.65Q277.34-39.65 278.37-38.6 279.39-37.55 279.39-35.9L279.39-35.9Q279.39-34.3 278.37-33.25 277.34-32.2 275.69-32.2L275.69-32.2Q274.04-32.2 273.02-33.25 271.99-34.3 271.99-35.9L271.99-35.9Q271.99-37.55 273.02-38.6 274.04-39.65 275.69-39.65L275.69-39.65ZM302.7-27.15Q306.6-27.15 308.6-23.58 310.6-20 310.6-13.3L310.6-13.3Q310.6-6.8 308.33-3.03 306.05 0.75 302 0.75L302 0.75Q298.8 0.75 296.65-2.1L296.65-2.1 296.65 10.15 290.5 10.85 290.5-26.45 295.95-26.45 296.2-23.25Q297.5-25.25 299.1-26.2 300.7-27.15 302.7-27.15L302.7-27.15ZM300.35-3.95Q302.25-3.95 303.25-6.13 304.25-8.3 304.25-13.25L304.25-13.25Q304.25-18.45 303.4-20.5 302.55-22.55 300.75-22.55L300.75-22.55Q298.45-22.55 296.65-19.25L296.65-19.25 296.65-6.45Q298.25-3.95 300.35-3.95L300.35-3.95ZM344.86-27.15Q347.51-27.15 349.11-25.1 350.71-23.05 350.71-19.6L350.71-19.6 350.71 0 344.66 0 344.66-18.95Q344.66-20.85 344.16-21.68 343.66-22.5 342.71-22.5L342.71-22.5Q340.76-22.5 338.96-18.8L338.96-18.8 338.96 0 332.96 0 332.96-18.95Q332.96-22.5 331.06-22.5L331.06-22.5Q329.01-22.5 327.26-18.8L327.26-18.8 327.26 0 321.21 0 321.21-26.45 326.56-26.45 326.96-23.05Q329.56-27.15 333.21-27.15L333.21-27.15Q335.06-27.15 336.41-26 337.76-24.85 338.46-22.75L338.46-22.75Q341.11-27.15 344.86-27.15L344.86-27.15ZM381.07-13.85Q381.07-13.4 380.92-11.3L380.92-11.3 367.27-11.3Q367.47-7.2 368.7-5.58 369.92-3.95 372.17-3.95L372.17-3.95Q373.72-3.95 374.97-4.48 376.22-5 377.67-6.15L377.67-6.15 380.22-2.65Q376.72 0.75 371.82 0.75L371.82 0.75Q366.62 0.75 363.85-2.85 361.07-6.45 361.07-13L361.07-13Q361.07-19.55 363.72-23.35 366.37-27.15 371.22-27.15L371.22-27.15Q375.87-27.15 378.47-23.78 381.07-20.4 381.07-13.85L381.07-13.85ZM375.07-15.3L375.07-15.65Q375.07-19.4 374.17-21.13 373.27-22.85 371.27-22.85L371.27-22.85Q369.42-22.85 368.45-21.18 367.47-19.5 367.27-15.3L367.27-15.3 375.07-15.3ZM403.73-27.15Q406.58-27.15 408.23-25.1 409.88-23.05 409.88-19.6L409.88-19.6 409.88 0 403.73 0 403.73-18.9Q403.73-20.8 403.21-21.63 402.68-22.45 401.68-22.45L401.68-22.45Q399.58-22.45 397.53-18.5L397.53-18.5 397.53 0 391.38 0 391.38-26.45 396.73-26.45 397.18-23Q398.53-25.1 400.06-26.13 401.58-27.15 403.73-27.15L403.73-27.15ZM432.59-5L434.74-1.2Q432.29 0.75 428.99 0.75L428.99 0.75Q425.54 0.75 423.74-1.23 421.94-3.2 421.94-6.6L421.94-6.6 421.94-22 418.84-22 418.84-26.45 421.94-26.45 421.94-32.3 428.09-33.05 428.09-26.45 433.09-26.45 432.49-22 428.09-22 428.09-6.6Q428.09-4.2 430.14-4.2L430.14-4.2Q430.79-4.2 431.29-4.38 431.79-4.55 432.59-5L432.59-5Z" opacity="1" transform="matrix(1,0,0,1,0,0)" fill="#ffffff" class="slogan-text-1" data-fill-palette-color="quaternary" id="text-1"></path></svg></g></svg></g></svg></g></svg></g><g></g></svg></g></svg></g></svg></g><defs></defs></svg><rect width="320" height="360" fill="none" stroke="none" visibility="hidden"></rect></g></svg></g></svg>